<?xml version="1.0" standalone="no"?>
<!DOCTYPE svg PUBLIC "-//W3C//DTD SVG 20010904//EN"
 "http://www.w3.org/TR/2001/REC-SVG-20010904/DTD/svg10.dtd">
<svg version="1.0" xmlns="http://www.w3.org/2000/svg"
 width="204.000000pt" height="204.000000pt" viewBox="0 0 204.000000 204.000000"
 preserveAspectRatio="xMidYMid meet">

<g transform="translate(0.000000,204.000000) scale(0.100000,-0.100000)"
fill="#000000" stroke="none">
<path d="M368 1353 c-2 -20 -10 -29 -28 -33 -14 -3 -25 -11 -24 -18 1 -7 2
-21 3 -32 1 -15 8 -20 31 -20 27 0 30 3 30 30 l0 31 83 -3 c81 -3 82 -3 85
-30 3 -24 8 -28 33 -28 26 0 29 -3 29 -30 0 -25 4 -30 25 -30 20 0 25 -5 25
-25 0 -21 5 -25 30 -25 l31 0 -3 -82 c-3 -82 -3 -83 -30 -86 l-28 -3 0 -120 0
-119 35 0 34 0 3 83 3 82 83 1 82 2 0 -28 c0 -24 5 -29 28 -32 19 -2 28 -9 30
-25 3 -17 10 -23 28 -23 20 0 24 -5 24 -30 0 -28 3 -30 35 -30 33 0 35 2 35
35 0 32 -2 35 -30 35 -27 0 -30 3 -30 30 0 27 -3 30 -31 30 -30 0 -30 1 -27
48 l3 47 110 0 110 0 3 -57 c3 -53 5 -57 30 -60 18 -2 28 -10 32 -28 3 -14 12
-25 20 -26 36 -2 40 -5 40 -29 0 -22 4 -25 36 -25 34 0 35 1 32 32 -3 28 -8
34 -33 38 -24 4 -31 11 -33 33 -3 21 -9 27 -27 27 -19 0 -35 16 -35 36 0 3 27
4 60 3 58 -2 60 -3 60 -29 0 -21 6 -29 24 -34 15 -4 26 -14 28 -29 2 -17 9
-22 31 -20 24 2 27 -2 27 -28 0 -27 3 -29 35 -29 33 0 35 2 35 34 0 30 -4 35
-27 38 -19 2 -29 10 -33 28 -4 15 -15 27 -30 30 -18 4 -25 13 -24 28 0 18 -5
22 -28 22 -26 0 -28 3 -29 40 -1 22 -2 46 -3 53 -1 7 13 13 32 15 18 2 30 8
27 13 -4 5 -3 18 0 30 6 18 14 20 88 18 l82 -2 0 119 0 119 -32 3 c-31 3 -33
1 -33 -27 0 -26 -4 -31 -25 -31 -21 0 -25 5 -25 30 0 28 -3 30 -35 30 l-35 0
0 -60 0 -60 -80 0 -80 0 0 30 0 30 -210 0 -210 0 0 -30 0 -31 -82 3 c-82 3
-83 3 -86 31 -3 21 -9 27 -28 27 -20 0 -24 5 -24 30 0 27 -3 30 -29 30 -25 0
-30 4 -33 28 l-3 27 -92 3 -92 3 -3 -28z"/>
</g>
</svg>
