<svg width="100" height="100" viewBox="0 0 100 100" fill="none" xmlns="http://www.w3.org/2000/svg">
<g id="loading">
<g id="loading_2">
<g id="orbit" filter="url(#filter0_b)">
<ellipse cx="53" cy="50" rx="31" ry="32" stroke="#00EEFF" stroke-width="2" stroke-miterlimit="1.41421" stroke-linecap="round" stroke-linejoin="round" stroke-dasharray="400 400"/>
</g>
<g id="cat">
<g id="catbg">
<g id="Group">
<path id="Vector" d="M34.6431 42.175C34.5853 42.675 34.3539 42.9 33.8333 43C33.4284 43.075 33.1103 43.275 33.1392 43.45C33.1681 43.625 33.1971 43.975 33.226 44.25C33.2549 44.625 33.4574 44.75 34.1226 44.75C34.9034 44.75 34.9902 44.675 34.9902 44V43.225L37.3907 43.3C39.7333 43.375 39.7623 43.375 39.849 44.05C39.9358 44.65 40.0804 44.75 40.8034 44.75C41.5554 44.75 41.6422 44.825 41.6422 45.5C41.6422 46.125 41.7578 46.25 42.3652 46.25C42.9436 46.25 43.0882 46.375 43.0882 46.875C43.0882 47.4 43.2328 47.5 43.9559 47.5H44.8525L44.7657 49.55C44.6789 51.6 44.6789 51.625 43.898 51.7L43.0882 51.775V54.775V57.75H44.1005H45.0838L45.1706 55.675L45.2574 53.625L47.6578 53.6L50.0294 53.55V54.25C50.0294 54.85 50.174 54.975 50.8392 55.05C51.3887 55.1 51.649 55.275 51.7069 55.675C51.7936 56.1 51.9961 56.25 52.5167 56.25C53.0951 56.25 53.2108 56.375 53.2108 57C53.2108 57.7 53.2975 57.75 54.223 57.75C55.1774 57.75 55.2353 57.7 55.2353 56.875C55.2353 56.075 55.1774 56 54.3676 56C53.5868 56 53.5 55.925 53.5 55.25C53.5 54.575 53.4132 54.5 52.6034 54.5C51.7358 54.5 51.7358 54.475 51.8225 53.3L51.9093 52.125H55.0907H58.2721L58.3588 53.55C58.4456 54.875 58.5034 54.975 59.2265 55.05C59.7471 55.1 60.0363 55.3 60.152 55.75C60.2387 56.1 60.499 56.375 60.7304 56.4C61.7716 56.45 61.8873 56.525 61.8873 57.125C61.8873 57.675 62.0029 57.75 62.9284 57.75C63.9118 57.75 63.9407 57.725 63.8539 56.95C63.7672 56.25 63.6225 56.1 62.8995 56C62.2054 55.9 62.0029 55.725 61.9451 55.175C61.8583 54.65 61.6848 54.5 61.1642 54.5C60.6147 54.5 60.152 54.1 60.152 53.6C60.152 53.525 60.9328 53.5 61.8873 53.525C63.5647 53.575 63.6225 53.6 63.6225 54.25C63.6225 54.775 63.7961 54.975 64.3167 55.1C64.7505 55.2 65.0686 55.45 65.1265 55.825C65.1843 56.25 65.3868 56.375 66.023 56.325C66.7172 56.275 66.8039 56.375 66.8039 57.025C66.8039 57.7 66.8907 57.75 67.8162 57.75C68.7706 57.75 68.8284 57.7 68.8284 56.9C68.8284 56.15 68.7127 56.025 68.0475 55.95C67.498 55.9 67.2088 55.7 67.0931 55.25C66.9774 54.875 66.6593 54.575 66.2255 54.5C65.7049 54.4 65.5024 54.175 65.5314 53.8C65.5314 53.35 65.3868 53.25 64.7216 53.25C63.9696 53.25 63.9118 53.175 63.8828 52.25C63.8539 51.7 63.825 51.1 63.7961 50.925C63.7672 50.75 64.1721 50.6 64.7216 50.55C65.2421 50.5 65.5892 50.35 65.5024 50.225C65.3868 50.1 65.4157 49.775 65.5024 49.475C65.676 49.025 65.9073 48.975 68.0475 49.025L70.4191 49.075V46.1V43.125L69.4936 43.05C68.5971 42.975 68.5392 43.025 68.5392 43.725C68.5392 44.375 68.4235 44.5 67.8162 44.5C67.2088 44.5 67.0931 44.375 67.0931 43.75C67.0931 43.05 67.0064 43 66.0809 43H65.0686V44.5V46H62.7549H60.4412V45.25V44.5H54.3676H48.2941V45.25V46.025L45.9225 45.95C43.551 45.875 43.5221 45.875 43.4353 45.175C43.3485 44.65 43.175 44.5 42.6255 44.5C42.0471 44.5 41.9314 44.375 41.9314 43.75C41.9314 43.075 41.8446 43 41.0926 43C40.3696 43 40.225 42.9 40.1382 42.3L40.0515 41.625L37.3907 41.55L34.7299 41.475L34.6431 42.175Z" fill="white"/>
</g>
</g>
<g id="cat_2">
<g id="Group_2">
<path id="Vector_2" d="M36.2824 42.175C36.2265 42.675 36.0029 42.9 35.5 43C35.1088 43.075 34.8015 43.275 34.8294 43.45C34.8574 43.625 34.8853 43.975 34.9132 44.25C34.9412 44.625 35.1368 44.75 35.7794 44.75C36.5338 44.75 36.6176 44.675 36.6176 44V43.225L38.9368 43.3C41.2 43.375 41.2279 43.375 41.3118 44.05C41.3956 44.65 41.5353 44.75 42.2338 44.75C42.9603 44.75 43.0441 44.825 43.0441 45.5C43.0441 46.125 43.1559 46.25 43.7426 46.25C44.3015 46.25 44.4412 46.375 44.4412 46.875C44.4412 47.4 44.5809 47.5 45.2794 47.5H46.1456L46.0618 49.55C45.9779 51.6 45.9779 51.625 45.2235 51.7L44.4412 51.775V54.775V57.75H45.4191H46.3691L46.4529 55.675L46.5368 53.625L48.8559 53.6L51.1471 53.55V54.25C51.1471 54.85 51.2868 54.975 51.9294 55.05C52.4603 55.1 52.7118 55.275 52.7676 55.675C52.8515 56.1 53.0471 56.25 53.55 56.25C54.1088 56.25 54.2206 56.375 54.2206 57C54.2206 57.7 54.3044 57.75 55.1985 57.75C56.1206 57.75 56.1765 57.7 56.1765 56.875C56.1765 56.075 56.1206 56 55.3382 56C54.5838 56 54.5 55.925 54.5 55.25C54.5 54.575 54.4162 54.5 53.6338 54.5C52.7956 54.5 52.7956 54.475 52.8794 53.3L52.9632 52.125H56.0368H59.1103L59.1941 53.55C59.2779 54.875 59.3338 54.975 60.0323 55.05C60.5353 55.1 60.8147 55.3 60.9265 55.75C61.0103 56.1 61.2618 56.375 61.4853 56.4C62.4912 56.45 62.6029 56.525 62.6029 57.125C62.6029 57.675 62.7147 57.75 63.6088 57.75C64.5588 57.75 64.5868 57.725 64.5029 56.95C64.4191 56.25 64.2794 56.1 63.5809 56C62.9103 55.9 62.7147 55.725 62.6588 55.175C62.575 54.65 62.4073 54.5 61.9044 54.5C61.3735 54.5 60.9265 54.1 60.9265 53.6C60.9265 53.525 61.6809 53.5 62.6029 53.525C64.2235 53.575 64.2794 53.6 64.2794 54.25C64.2794 54.775 64.4471 54.975 64.95 55.1C65.3691 55.2 65.6765 55.45 65.7323 55.825C65.7882 56.25 65.9838 56.375 66.5985 56.325C67.2691 56.275 67.3529 56.375 67.3529 57.025C67.3529 57.7 67.4368 57.75 68.3309 57.75C69.2529 57.75 69.3088 57.7 69.3088 56.9C69.3088 56.15 69.1971 56.025 68.5544 55.95C68.0235 55.9 67.7441 55.7 67.6323 55.25C67.5206 54.875 67.2132 54.575 66.7941 54.5C66.2912 54.4 66.0956 54.175 66.1235 53.8C66.1235 53.35 65.9838 53.25 65.3412 53.25C64.6147 53.25 64.5588 53.175 64.5309 52.25C64.5029 51.7 64.475 51.1 64.4471 50.925C64.4191 50.75 64.8103 50.6 65.3412 50.55C65.8441 50.5 66.1794 50.35 66.0956 50.225C65.9838 50.1 66.0118 49.775 66.0956 49.475C66.2632 49.025 66.4868 48.975 68.5544 49.025L70.8456 49.075V46.1V43.125L69.9515 43.05C69.0853 42.975 69.0294 43.025 69.0294 43.725C69.0294 44.375 68.9176 44.5 68.3309 44.5C67.7441 44.5 67.6323 44.375 67.6323 43.75C67.6323 43.05 67.5485 43 66.6544 43H65.6765V44.5V46H63.4412H61.2059V45.25V44.5H55.3382H49.4706V45.25V46.025L47.1794 45.95C44.8882 45.875 44.8603 45.875 44.7765 45.175C44.6926 44.65 44.525 44.5 43.9941 44.5C43.4353 44.5 43.3235 44.375 43.3235 43.75C43.3235 43.075 43.2397 43 42.5132 43C41.8147 43 41.675 42.9 41.5912 42.3L41.5074 41.625L38.9368 41.55L36.3662 41.475L36.2824 42.175Z" fill="black"/>
</g>
</g>
</g>
</g>
</g>
<defs>
<filter id="filter0_b" x="17" y="13" width="72" height="74" filterUnits="userSpaceOnUse" color-interpolation-filters="sRGB">
<feFlood flood-opacity="0" result="BackgroundImageFix"/>
<feGaussianBlur in="BackgroundImage" stdDeviation="2"/>
<feComposite in2="SourceAlpha" operator="in" result="effect1_backgroundBlur"/>
<feBlend mode="normal" in="SourceGraphic" in2="effect1_backgroundBlur" result="shape"/>
</filter>
</defs>
</svg>
